<?xml version="1.0" ?><!DOCTYPE svg  PUBLIC '-//W3C//DTD SVG 1.1//EN'  'http://www.w3.org/Graphics/SVG/1.1/DTD/svg11.dtd'><svg enable-background="new 0 0 64 64" height="64px" id="Layer_1" version="1.1" viewBox="0 0 64 64" width="64px" xml:space="preserve" xmlns="http://www.w3.org/2000/svg" xmlns:xlink="http://www.w3.org/1999/xlink"><g><path d="M37.076,20.459h-6.266c-2.08,0-2.293-1.521-2.307-2.055v-2.458c0-2.143-1.467-3.884-3.288-3.884h-5.544   c-1.82,0-3.288,1.741-3.288,3.884v2.572c-0.046,0.672-0.371,1.941-2.188,1.941H7.812c-1.79,0-3.223,1.433-3.223,3.222v3.536   c0,0-0.039,3.137,1.313,7.9c0,0.001,0,0.003,0.001,0.004l5.479,19.303c0.003,0.017,0.861,4.074,0.861,5.157v2.649   c0,0.884,0.71,1.609,1.613,1.609h17.179c0.903,0,1.611-0.726,1.611-1.609v-1.267c0.037-0.998,0.376-3.262,0.651-4.95l1.269-5.312   l4.379-15.428c0-0.002,0-0.002,0-0.003c0.936-3.296,1.356-8.375,1.356-8.375v-3.215C40.3,21.892,38.866,20.459,37.076,20.459z    M35.577,28.97c0,0-0.584,7.944-2.577,16.713c0,0.008-0.003,0.014-0.003,0.021L30.163,58.17c0,0.001-0.002,0.001-0.002,0.003   c-0.349,1.533-1.171,1.884-1.688,1.951H17.381c-1.777,0-2.297-1.485-2.422-1.973l-0.036-0.153c0-0.001-0.001-0.012-0.001-0.012   l-0.031-0.122l-2.405-10.066c-0.002-0.008-0.003-0.012-0.005-0.02c-1.704-7.13-3.169-17.377-3.169-17.377V26.55   c0-0.873,0.707-1.58,1.58-1.58h23.106c0.873,0,1.58,0.707,1.58,1.58V28.97z" fill="#241F20"/><path d="M29.425,32.903h-6.144c-1.247,0-1.404,1.05-1.407,1.072l-1.354,11.66c-0.076,0.639-0.422,0-0.424-0.001   L17.743,34.29c-0.259-1.245-1.126-1.378-1.432-1.387h-1.079c-1.953,0-2.163,1.255-2.101,2.06l0.108,0.658v0.002l0.159,0.964   l2.41,11.1l1.893,7.674c0.38,1.527,1.305,1.796,1.753,1.834h5.934c0.503-0.04,1.407-0.296,1.737-1.618l2.086-8.33l1.981-9.271   c0.133-0.693,0.263-1.369,0.38-1.997C32.13,33.176,30.088,32.917,29.425,32.903z" fill="#241F20"/><path d="M56.313,32.085h-0.865c-1.36,0.023-1.492-1.31-1.5-1.753V14.125c0.005-0.586,0.084-3.076,1.008-5.793   c0.002-0.005,0.002-0.008,0.005-0.014l2.294-6.737c0-0.001,0-0.002,0-0.003c0.503-1.478-1.14-1.417-1.14-1.417h-7.975   c-1.531,0-1.193,1.35-1.084,1.69l0.003,0.012c0.013,0.037,0.023,0.065,0.023,0.065l2.272,6.764c0,0,0.907,2.75,0.907,5.169v16.491   c0,1.431-0.798,1.693-1.239,1.733h-1.038c-1.711,0-3.099,1.977-3.099,4.416v22.92c0,2.442,1.388,4.419,3.099,4.419h8.328   c1.708,0,3.099-1.977,3.099-4.419v-22.92C59.412,34.062,58.021,32.085,56.313,32.085z" fill="#241F20"/></g></svg>